<svg id="Layer_1" enable-background="new 0 0 512 512" height="512" viewBox="0 0 512 512" width="512" xmlns="http://www.w3.org/2000/svg"><path d="m322.228 252.602c19.141-10.822 35.394-26.176 47.285-44.602h32.182c22.224 0 40.305-18.08 40.305-40.304v-46.392c0-22.223-18.081-40.304-40.305-40.304h-21.978c-20.873-47.635-68.468-81-123.717-81-74.439 0-135 60.561-135 135 0 50.388 27.753 94.41 68.772 117.602-102.622 28.419-178.186 122.632-178.186 234.175v10.223c0 8.284 6.716 15 15 15h458.828c8.284 0 15-6.716 15-15v-10.223c0-111.543-75.564-205.756-178.186-234.175zm-18.159 26.367-48.368 79.629-50.311-79.037c15.785-3.744 32.239-5.74 49.152-5.74h2.914c16.008 0 31.606 1.784 46.613 5.148zm97.626-167.969c5.586 0 10.305 4.719 10.305 10.305v46.392c0 5.585-4.719 10.304-10.305 10.304h-17.717c4.552-13.512 7.023-27.973 7.023-43 0-8.189-.734-16.209-2.138-24h12.832zm-145.695-81c38.778 0 72.712 21.132 90.896 52.484-7.576 2.97-15.686 4.516-23.934 4.516-21.917 0-42.288-10.896-54.493-29.149-2.783-4.163-7.461-6.662-12.469-6.662s-9.686 2.499-12.469 6.662c-12.206 18.252-32.577 29.149-54.494 29.149-8.261 0-16.36-1.549-23.93-4.52 18.184-31.349 52.116-52.48 90.893-52.48zm-105 105c0-8.498 1.022-16.761 2.937-24.679 11.104 4.389 22.986 6.679 35.1 6.679 25.348 0 49.275-9.994 66.963-27.401 17.687 17.408 41.614 27.401 66.962 27.401 12.092 0 23.992-2.282 35.104-6.671 1.914 7.916 2.935 16.176 2.935 24.671 0 15.313-3.297 29.869-9.215 43h-88.786c-8.284 0-15 6.716-15 15s6.716 15 15 15h68.396c-19.1 19.721-45.839 32.001-75.396 32.001-57.897 0-105-47.104-105-105.001zm-109.361 347c1.939-87.563 56.999-162.251 134.152-193.072l67.556 106.127c2.755 4.329 7.528 6.945 12.652 6.945.053 0 .106 0 .158-.001 5.184-.055 9.972-2.781 12.663-7.212l64.897-106.843c78.459 30.195 134.684 105.553 136.644 194.056z"/></svg>